Simulation
nRows=39
nColumns=15
endheader
time  TH_x TH_y TH_z SC_y  SC_z  SC_x  AC_y  AC_z  AC_x  GH_y  GH_z  GH_yy  EL_x  PS_y
0.0  0.000000  0.000000  0.000000  -33.70874949791409  1.7228332433619  1.5241635663120063  54.9358646237312  8.08997115722586  -7.058198365262505  13.436350355209171  4.3077271405327755  4.965534001759839  22.867495038429606  0.000000
0.011899999999999999  0.000000  0.000000  0.000000  -34.324667710672756  1.6945750700161035  1.6567069172537097  54.88388810187242  8.174887631799908  -7.088253515379382  12.775475639682403  4.37256162375439  5.61608990351304  22.797056040113137  0.000000
0.023799999999999998  0.000000  0.000000  0.000000  -34.33978436807123  1.803099854453899  1.6835932421115802  54.75821485227385  8.198724788271717  -7.123834847575044  11.312093998760645  4.351177648903883  7.1673307225508305  22.756640480341257  0.000000
0.035699999999999996  0.000000  0.000000  0.000000  -34.269343884726865  1.9195310411602315  1.6981582616219681  54.69283035121683  8.216684857079475  -7.136627212634021  9.131117447647444  4.332769432605956  9.549801218839749  22.72600846439033  0.000000
0.047599999999999996  0.000000  0.000000  0.000000  -34.2218333889744  2.0135767465355383  1.7175003602564896  54.627310502172236  8.209687144598597  -7.1238961382252  6.773749587923607  4.359351872100283  12.111000729867708  22.710522843556408  0.000000
0.0595  0.000000  0.000000  0.000000  -34.231005370960624  2.089694686651974  1.7421679485897257  54.61757751453379  8.183640896853822  -7.105016483817706  4.57240843250627  4.439950826362894  14.511057972997731  22.6982271391125  0.000000
0.07139999999999999  0.000000  0.000000  0.000000  -34.24824788811395  2.1501234632415414  1.77732274288127  54.58347551727367  8.129334674873368  -7.0774197543113635  2.5292819341412263  4.562443602972567  16.73774936382547  22.703989342959044  0.000000
0.0833  0.000000  0.000000  0.000000  -34.28643881229993  2.2019908529617966  1.8111377570042788  54.58414744206789  8.063995579144025  -7.049145796250954  0.7679204969959504  4.724411385344625  18.65949719963756  22.71970098862929  0.000000
0.09519999999999999  0.000000  0.000000  0.000000  -34.313768763111625  2.2457253188235855  1.843566308987632  54.55921503366018  7.979713027686776  -7.017555652328588  -0.67418272055788  4.923941167033516  20.237262943658003  22.751793584808304  0.000000
0.10709999999999999  0.000000  0.000000  0.000000  -34.350492378522866  2.2840368702418243  1.8732037299808075  54.5589711198536  7.890792153693921  -6.990517460622785  -1.8195026071983587  5.157164615176658  21.4837992105388  22.79966312100681  0.000000
0.119  0.000000  0.000000  0.000000  -34.370216371135164  2.315970623552255  1.896968755452471  54.533337319996825  7.790736440884245  -6.962782754609907  -2.6696659957755333  5.42604416445536  22.399906978527124  22.862102012079742  0.000000
0.1309  0.000000  0.000000  0.000000  -34.39717210662381  2.343737687046839  1.9183617038025425  54.53128651394916  7.690452005996914  -6.942000694515353  -3.285496344101061  5.7282349767882215  23.040939610664754  22.938540752581563  0.000000
0.14279999999999998  0.000000  0.000000  0.000000  -34.40557396482712  2.365688674552428  1.9353638400788602  54.503854322391874  7.58344892064485  -6.922001894219267  -3.7004064210652823  6.0658399042231395  23.439595918861485  23.026939913574115  0.000000
0.15469999999999998  0.000000  0.000000  0.000000  -34.42115708764505  2.383998748859678  1.9514261055078321  54.50096223114363  7.479957353253722  -6.909452190503116  -3.9756571051273317  6.43788532337003  23.654461596606623  23.126000295385168  0.000000
0.1666  0.000000  0.000000  0.000000  -34.41918517835415  2.397815641426383  1.9649948940728552  54.473334876657354  7.373413947363247  -6.897587063963013  -4.137601174353925  6.845684559506347  23.71253317348549  23.23423779142584  0.000000
0.1785  0.000000  0.000000  0.000000  -34.42588263404763  2.4098438860438804  1.9791744246427774  54.4706448099147  7.273249625660518  -6.893392445692886  -4.224193945315201  7.2884074857671015  23.650724079394422  23.350486357053544  0.000000
0.19039999999999999  0.000000  0.000000  0.000000  -34.41681320553364  2.4187747460678466  1.9927736848476398  54.4434646063289  7.173191978760935  -6.889963061992491  -4.254942384048816  7.766791599800114  23.490720481994533  23.47329161642089  0.000000
0.20229999999999998  0.000000  0.000000  0.000000  -34.41801406000523  2.426918077853319  2.008638607936214  54.44157917353167  7.08208945540963  -6.893933739802912  -4.256812366827837  8.280202315207928  23.259371522615975  23.601197061861026  0.000000
0.21419999999999997  0.000000  0.000000  0.000000  -34.40520920276401  2.4328265779557015  2.025668405302411  54.41638623625057  6.993767316619647  -6.898071820315555  -4.240513331883491  8.828752956183374  22.970353388507657  23.73271216310052  0.000000
0.2261  0.000000  0.000000  0.000000  -34.404327626727884  2.4388775124612945  2.0464692338456936  54.417327607474334  6.916448022450481  -6.90874531300431  -4.220336625327558  9.4116340458722  22.638791647906466  23.86657755126871  0.000000
0.238  0.000000  0.000000  0.000000  -34.39110465828877  2.443506168506322  2.069974537906797  54.396206433298104  6.844049434651835  -6.918631664026742  -4.19994799339937  10.028237270614257  22.27189938113045  24.001673259050644  0.000000
0.24989999999999998  0.000000  0.000000  0.000000  -34.391202272835315  2.4487449605835834  2.098566121956244  54.402393030938086  6.784318023535273  -6.934309603548787  -4.186080580344979  10.677627810958475  21.87781699353272  24.136957019607756  0.000000
0.2618  0.000000  0.000000  0.000000  -34.38030011355245  2.45289084437007  2.1311497648112256  54.38806340938483  6.7310483439970135  -6.948393382411039  -4.177681069999461  11.358459524133226  21.459140837032706  24.270939930877486  0.000000
0.2737  0.000000  0.000000  0.000000  -34.38397785655062  2.4580033212311676  2.1698463517198374  54.40227226206116  6.691441967436447  -6.967423113308398  -4.176061452466997  12.06951958738323  21.018999671097053  24.402548372011903  0.000000
0.28559999999999997  0.000000  0.000000  0.000000  -34.37784155275826  2.4623641309588518  2.213367405047153  54.39713602304562  6.659178858034387  -6.98397204041447  -4.178036721827546  12.80889868269966  20.55800615832325  24.530600297216758  0.000000
0.2975  0.000000  0.000000  0.000000  -34.38737875345471  2.468024676837778  2.263676106136756  54.42147771323564  6.641026836880199  -7.004606921314303  -4.183051681251101  13.575135364572224  20.077726220133275  24.654145139188945  0.000000
0.30939999999999995  0.000000  0.000000  0.000000  -34.388085372909565  2.473123267410933  2.3192711459624267  54.4274551435873  6.630470736032881  -7.021943010454168  -4.187805316298146  14.365978373103877  19.578555300248034  24.77216177668813  0.000000
0.3213  0.000000  0.000000  0.000000  -34.405282925899854  2.4797488036316673  2.3821106100705185  54.46380471333398  6.633910467078629  -7.042704803511702  -4.1909383259841215  15.179698560063965  19.06141175606011  24.88384171330302  0.000000
0.3332  0.000000  0.000000  0.000000  -34.414278478939956  2.486363485297773  2.4506887083688746  54.48231262333064  6.644242464958008  -7.0590363758953245  -4.189640375652369  16.013757102229274  18.527410791055715  24.98825628973402  0.000000
0.34509999999999996  0.000000  0.000000  0.000000  -34.44032736173488  2.4951245721699786  2.526992718590162  54.53164864117226  6.667703675242561  -7.077796017585456  -4.182621953761059  16.866088329420688  17.977375971650712  25.08474994394107  0.000000
0.357  0.000000  0.000000  0.000000  -34.45852075322917  2.5044461781566514  2.609214370270765  54.56361905381351  6.696771858457709  -7.091107276631529  -4.1684982160572455  17.734185782606925  17.413336307565277  25.172464251092638  0.000000
0.36889999999999995  0.000000  0.000000  0.000000  -34.49432922099642  2.5164200185810315  2.699582445613422  54.62663132454321  6.737530065832059  -7.105735957337262  -4.147807636196476  18.615848473646945  16.837989855289383  25.250890851722367  0.000000
0.38079999999999997  0.000000  0.000000  0.000000  -34.52280963878072  2.5296754810083737  2.7960499021714798  54.67268670403981  6.781652635243161  -7.113753750524889  -4.120146944065823  19.508678813421067  16.25378357030864  25.31886544039498  0.000000
0.3927  0.000000  0.000000  0.000000  -34.56944373783486  2.5462668262580554  2.9012219606929053  54.75003869329081  6.834989176228116  -7.122185305092007  -4.0876270419666145  20.410142792467678  15.664401461375183  25.376146922863082  0.000000
0.40459999999999996  0.000000  0.000000  0.000000  -34.60983057345098  2.5645014742283267  3.0108769356477865  54.81037736786672  6.890637277077378  -7.1222234626804894  -4.049474555991073  21.31799467327984  15.072372055498933  25.42162211364784  0.000000
0.4165  0.000000  0.000000  0.000000  -34.66937406413132  2.5866943926502195  3.1291380138553664  54.901877097508816  6.9529363918453155  -7.121991778424048  -4.007442391450596  22.229579464190387  14.480517771896348  25.45496359263209  0.000000
0.42839999999999995  0.000000  0.000000  0.000000  -34.72336298327782  2.610794372847812  3.2510385198698506  54.97531585715141  7.015628965157234  -7.113277495644179  -3.960659773438716  23.14230289290893  13.890758056609663  25.475717612863715  0.000000
0.44029999999999997  0.000000  0.000000  0.000000  -34.797462564695614  2.639010188908034  3.38077393162333  55.078915519288806  7.083140769536361  -7.104229242421839  -3.911991621998181  24.053789923261967  13.307112905309298  25.48341726829645  0.000000
0.4522  0.000000  0.000000  0.000000  -34.86654038578277  2.669344333768715  3.5143251150590715  55.16271990934092  7.148018174324128  -7.088142602229978  -3.859746266399689  24.961240588274265  12.729686577329952  25.477725129852924  0.000000
